<mxfile host="app.diagrams.net" modified="2021-11-30T09:24:30.821Z" agent="5.0 (Windows)" etag="3Dl7cm17Vx1NPcPh0ubl" version="15.8.7" type="github">
  <diagram id="rRFUTKCY2RcfOUQnv4tR" name="Page-1">
    <mxGraphModel dx="865" dy="455" grid="1" gridSize="10" guides="1" tooltips="1" connect="1" arrows="1" fold="1" page="1" pageScale="1" pageWidth="827" pageHeight="1169" math="0" shadow="0">
      <root>
        <mxCell id="0" />
        <mxCell id="1" parent="0" />
        <mxCell id="j4lKWAqUsnPBpEF1H8we-1" value="" style="rounded=0;whiteSpace=wrap;html=1;" vertex="1" parent="1">
          <mxGeometry x="80" y="80" width="640" height="1040" as="geometry" />
        </mxCell>
        <mxCell id="j4lKWAqUsnPBpEF1H8we-2" value="X.509 with Hybrid" style="text;strokeColor=none;fillColor=none;align=center;verticalAlign=middle;spacingLeft=4;spacingRight=4;overflow=hidden;points=[[0,0.5],[1,0.5]];portConstraint=eastwest;rotatable=0;fontSize=17;fontStyle=1" vertex="1" parent="1">
          <mxGeometry x="80" y="80" width="640" height="40" as="geometry" />
        </mxCell>
        <mxCell id="j4lKWAqUsnPBpEF1H8we-4" value="Signature Algorihtm" style="rounded=0;whiteSpace=wrap;html=1;fontSize=17;" vertex="1" parent="1">
          <mxGeometry x="90" y="1050" width="620" height="60" as="geometry" />
        </mxCell>
        <mxCell id="j4lKWAqUsnPBpEF1H8we-3" value="Data" style="rounded=0;whiteSpace=wrap;html=1;fontSize=22;verticalAlign=top;" vertex="1" parent="1">
          <mxGeometry x="90" y="120" width="620" height="630" as="geometry" />
        </mxCell>
        <mxCell id="j4lKWAqUsnPBpEF1H8we-5" value="&lt;div&gt;&lt;font size=&quot;1&quot;&gt;Version, Issues, Validy, Subject...&lt;br&gt;&lt;/font&gt;&lt;/div&gt;" style="rounded=0;whiteSpace=wrap;html=1;fontSize=22;" vertex="1" parent="1">
          <mxGeometry x="100" y="160" width="600" height="70" as="geometry" />
        </mxCell>
        <mxCell id="j4lKWAqUsnPBpEF1H8we-6" value="&lt;font face=&quot;Helvetica&quot;&gt;&lt;span style=&quot;color: rgba(0 , 0 , 0 , 0) ; font-size: 17px ; font-style: normal ; font-weight: 400 ; letter-spacing: normal ; text-indent: 0px ; text-transform: none ; word-spacing: 0px ; background-color: rgb(255 , 255 , 255) ; display: inline ; float: none&quot;&gt;Subject &lt;/span&gt;&lt;span style=&quot;color: rgba(0 , 0 , 0 , 0) ; font-size: 17px ; font-style: normal ; font-weight: 400 ; letter-spacing: normal ; text-indent: 0px ; text-transform: none ; word-spacing: 0px ; background-color: rgb(255 , 255 , 255) ; display: inline ; float: none&quot;&gt;&lt;span style=&quot;color: rgba(0 , 0 , 0 , 0) ; font-size: 17px ; font-style: normal ; font-weight: 400 ; letter-spacing: normal ; text-indent: 0px ; text-transform: none ; word-spacing: 0px ; background-color: rgb(255 , 255 , 255) ; display: inline ; float: none&quot;&gt;Subject Public Key Info&lt;/span&gt;Key Info&lt;/span&gt;&lt;/font&gt;" style="rounded=0;whiteSpace=wrap;html=1;fontSize=17;" vertex="1" parent="1">
          <mxGeometry x="100" y="240" width="600" height="180" as="geometry" />
        </mxCell>
      </root>
    </mxGraphModel>
  </diagram>
</mxfile>
